<svg width="73" height="73" viewBox="0 0 73 73" fill="none" xmlns="http://www.w3.org/2000/svg">
<path d="M36.501 0.00193887H30.4177C17.825 0.0161962 7.6201 10.2211 7.60584 22.8137V25.3702L0.190551 38.8078C0.0670812 39.0329 0.0022099 39.2856 0.00192475 39.5424C-0.000641584 39.6288 -0.000641584 39.7153 0.00192475 39.8017C0.0734971 42.2498 2.11616 44.1764 4.5643 44.1047C5.6704 44.1662 6.73143 44.5635 7.60584 45.2437V50.1878C7.60242 50.304 7.60242 50.4203 7.60584 50.5367C7.70222 53.7999 10.4257 56.3674 13.6891 56.271H22.8138C22.9002 56.2735 22.9868 56.2735 23.0732 56.271C25.5213 56.1994 27.4479 54.1567 27.3762 51.7086V42.5839H24.3347V51.7086C24.3435 51.799 24.3435 51.8901 24.3347 51.9805C24.2595 52.7454 23.5787 53.3044 22.8138 53.2294H13.6891C13.5677 53.2371 13.446 53.2371 13.3246 53.2294C11.7455 53.1288 10.5469 51.7671 10.6475 50.1879V44.5185C10.6477 44.0829 10.461 43.6682 10.135 43.3795C8.60971 41.9741 6.63634 41.1536 4.5643 41.0633C4.5576 41.0642 4.55076 41.0649 4.54406 41.0656C3.8108 41.1433 3.15325 40.6119 3.0754 39.8785L10.4589 26.4956C10.5824 26.2704 10.6472 26.0178 10.6475 25.761V22.8137C10.6601 11.9002 19.5042 3.05601 30.4179 3.04347H36.4828C36.5754 3.03363 36.6688 3.03306 36.7614 3.04175C37.5299 3.11404 38.0942 3.79569 38.0219 4.56416V12.168H41.0635V4.5643C41.066 4.4779 41.066 4.39136 41.0635 4.30496C40.9918 1.85682 38.9491 -0.0697758 36.501 0.00193887Z" fill="#005DE8"/>
<path d="M62.3548 45.626H45.626V48.6675H62.3547C62.4451 48.6586 62.5362 48.6586 62.6266 48.6675C63.3915 48.7426 63.9507 49.4234 63.8755 50.1883V53.0626C63.6565 53.9705 62.1904 59.313 57.7923 59.313C56.9524 59.313 56.2715 59.994 56.2715 60.8339V69.9586H27.3765V65.3962H24.335V71.4794C24.335 72.3193 25.0159 73.0003 25.8558 73.0003H57.7924C58.6324 73.0003 59.3133 72.3193 59.3133 71.4794V62.2208C64.0673 61.3221 66.3332 56.3064 66.8868 53.5341C66.9072 53.434 66.9173 53.3321 66.9172 53.23V50.1885C66.9198 50.1021 66.9198 50.0155 66.9172 49.9291C66.8456 47.4808 64.803 45.5542 62.3548 45.626Z" fill="#005DE8"/>
<path d="M71.479 18.2517H67.645C67.484 17.7999 67.2998 17.3567 67.093 16.924L69.806 14.211C70.3997 13.6172 70.3997 12.6545 69.806 12.0606L65.5037 7.75825C64.9099 7.16457 63.9472 7.16457 63.3532 7.75825L60.6402 10.4713C60.2073 10.2653 59.7642 10.0816 59.3125 9.92081V6.08529C59.3125 5.24539 58.6316 4.56445 57.7917 4.56445H51.7086C50.8687 4.56445 50.1878 5.24539 50.1878 6.08529V9.92067C49.3597 10.2131 48.5621 10.5853 47.8062 11.0323L49.3513 13.6511C50.2065 13.1477 51.1279 12.7663 52.0887 12.5181C52.7601 12.3447 53.2292 11.7393 53.2293 11.046V7.60612H56.2709V11.0461C56.27 11.7392 56.7378 12.3451 57.4085 12.5198C58.3693 12.768 59.2907 13.1494 60.1459 13.6528C60.7436 14.006 61.5045 13.9096 61.9952 13.4186L64.4285 10.9853L66.5804 13.1326L64.1471 15.5659C63.6556 16.0562 63.5587 16.8172 63.9114 17.4152C64.4158 18.2702 64.7982 19.1917 65.0474 20.1526C65.2207 20.8234 65.8253 21.2924 66.5181 21.2932H69.9581V24.3333H66.5211C65.8283 24.3342 65.2237 24.8031 65.0504 25.4739C64.8012 26.4348 64.4188 27.3563 63.9144 28.2113C63.5617 28.8093 63.6586 29.5702 64.1501 30.0606L66.5834 32.4939L64.433 34.6444L61.9996 32.2111C61.5089 31.7201 60.748 31.6237 60.1503 31.9768C59.2951 32.4803 58.3737 32.8616 57.4129 33.1099C56.7415 33.2832 56.2724 33.8886 56.2723 34.5819V38.022H53.2307V34.5835C53.2306 33.8902 52.7615 33.2847 52.0901 33.1114C51.1293 32.8632 50.2079 32.4818 49.3527 31.9784C48.7551 31.6252 47.9941 31.7216 47.5034 32.2127L45.0704 34.6457L42.9199 32.4952L45.3532 30.0619C45.8447 29.5716 45.9418 28.8106 45.5889 28.2126C45.0845 27.3576 44.7021 26.4361 44.4529 25.4752C44.2796 24.8044 43.675 24.3354 42.9822 24.3346H38.0215V27.3761H41.8569C42.0173 27.8279 42.201 28.2711 42.4074 28.7038L39.6943 31.4168C39.1006 32.0106 39.1006 32.9733 39.6943 33.5672L43.9966 37.8696C44.5905 38.4632 45.5531 38.4632 46.1471 37.8696L48.8601 35.1565C49.293 35.3625 49.7361 35.5462 50.1878 35.707V39.5424C50.1878 40.3823 50.8687 41.0632 51.7086 41.0632H57.7918C58.6317 41.0632 59.3127 40.3823 59.3127 39.5424V35.7084C59.7644 35.5476 60.2075 35.3638 60.6403 35.1579L63.3534 37.8696C63.9472 38.4632 64.9099 38.4632 65.5038 37.8696L69.8062 33.5672C70.3998 32.9734 70.3998 32.0108 69.8062 31.4168L67.0915 28.7038C67.2984 28.2711 67.4826 27.8279 67.6436 27.3761H71.479C72.3189 27.3761 72.9998 26.6952 72.9998 25.8553V19.7724C72.9997 18.9325 72.3189 18.2517 71.479 18.2517Z" fill="#005DE8"/>
<path d="M54.7502 16.731C51.3906 16.731 48.667 19.4545 48.667 22.8142C48.667 26.1738 51.3904 28.8974 54.7502 28.8974C58.1098 28.8974 60.8334 26.1738 60.8334 22.8142C60.8334 19.4545 58.11 16.731 54.7502 16.731ZM54.7502 25.8557C53.0704 25.8557 51.7087 24.494 51.7087 22.8142C51.7087 21.1344 53.0704 19.7726 54.7502 19.7726C56.43 19.7726 57.7917 21.1344 57.7917 22.8142C57.7919 24.494 56.4302 25.8557 54.7502 25.8557Z" fill="#005DE8"/>
<path d="M22.8135 24.335V25.8558H18.2512V24.335H15.2096V25.8558C15.2088 25.8979 15.2088 25.9398 15.2096 25.9818C15.2444 27.6268 16.6061 28.9321 18.2512 28.8973H22.8135C22.8556 28.8982 22.8975 28.8982 22.9396 28.8973C24.5846 28.8625 25.8899 27.5008 25.8551 25.8558V24.335H22.8135Z" fill="#005DE8"/>
<path d="M42.5839 42.584C40.0641 42.584 38.0215 44.6266 38.0215 47.1463C38.0215 49.6661 40.0641 51.7087 42.5839 51.7087C45.1036 51.7087 47.1462 49.6661 47.1462 47.1463C47.1462 44.6266 45.1036 42.584 42.5839 42.584ZM42.5839 48.6672C41.744 48.6672 41.063 47.9862 41.063 47.1463C41.063 46.3064 41.744 45.6255 42.5839 45.6255C43.4238 45.6255 44.1047 46.3064 44.1047 47.1463C44.1047 47.9862 43.4238 48.6672 42.5839 48.6672Z" fill="#005DE8"/>
<path d="M25.8558 34.98C23.3361 34.98 21.2935 37.0226 21.2935 39.5423C21.2935 42.062 23.3361 44.1047 25.8558 44.1047C28.3756 44.1047 30.4182 42.062 30.4182 39.5423C30.4182 37.0226 28.3756 34.98 25.8558 34.98ZM25.8558 41.0632C25.0159 41.0632 24.335 40.3822 24.335 39.5423C24.335 38.7024 25.0159 38.0215 25.8558 38.0215C26.6957 38.0215 27.3767 38.7024 27.3767 39.5423C27.3765 40.3822 26.6957 41.0632 25.8558 41.0632Z" fill="#005DE8"/>
<path d="M39.5424 16.6474C37.0227 16.6474 34.98 18.69 34.98 21.2097C34.98 23.7294 37.0227 25.7721 39.5424 25.7721C42.0621 25.7721 44.1048 23.7294 44.1048 21.2097C44.1048 18.69 42.0621 16.6474 39.5424 16.6474ZM39.5424 22.7306C38.7025 22.7306 38.0215 22.0496 38.0215 21.2097C38.0215 20.3698 38.7025 19.6889 39.5424 19.6889C40.3823 19.6889 41.0632 20.3698 41.0632 21.2097C41.0632 22.0496 40.3823 22.7306 39.5424 22.7306Z" fill="#005DE8"/>
<path d="M34.98 24.335H31.9385V27.3765H34.98V24.335Z" fill="#005DE8"/>
<path d="M34.98 30.4175H31.9385V33.459H34.98V30.4175Z" fill="#005DE8"/>
<path d="M27.3765 59.3125H24.335V62.354H27.3765V59.3125Z" fill="#005DE8"/>
</svg>
