<svg width="52" height="52" viewBox="0 0 52 52" fill="none" xmlns="http://www.w3.org/2000/svg">
<rect width="10.2107" height="10.2107" transform="matrix(0.704341 -0.709862 0.704341 0.709862 18.8081 7.24829)" fill="url(#paint0_angular_1_454)"/>
<rect width="10.2107" height="10.2107" transform="matrix(0.704341 -0.709862 0.704341 0.709862 9.40405 16.7415)" fill="url(#paint1_angular_1_454)"/>
<rect width="10.2107" height="10.2107" transform="matrix(0.704341 -0.709862 0.704341 0.709862 28.2124 16.7415)" fill="url(#paint2_angular_1_454)"/>
<rect width="10.2107" height="10.2107" transform="matrix(0.704341 -0.709862 0.704341 0.709862 18.8081 26.2336)" fill="url(#paint3_angular_1_454)"/>
<rect width="10.2107" height="10.2107" transform="matrix(0.704341 -0.709862 0.704341 0.709862 0 26.2336)" fill="url(#paint4_angular_1_454)"/>
<rect width="10.2107" height="10.2107" transform="matrix(0.704341 -0.709862 0.704341 0.709862 37.6165 26.2336)" fill="url(#paint5_angular_1_454)"/>
<rect width="5.10534" height="5.10534" transform="matrix(0.704341 -0.709862 0.704341 0.709862 22.1667 48.376)" fill="url(#paint6_angular_1_454)"/>
<rect width="5.10534" height="5.10534" transform="matrix(0.704341 -0.709862 0.704341 0.709862 31.5708 38.8828)" fill="url(#paint7_angular_1_454)"/>
<rect width="5.10534" height="5.10534" transform="matrix(0.704341 -0.709862 0.704341 0.709862 12.7627 38.8828)" fill="url(#paint8_angular_1_454)"/>
<defs>
<radialGradient id="paint0_angular_1_454" cx="0" cy="0" r="1" gradientUnits="userSpaceOnUse" gradientTransform="translate(5.62101 4.69333) rotate(135) scale(8.02268 27.3334)">
<stop stop-color="#5C9FF9"/>
<stop offset="1" stop-color="#0058DC"/>
</radialGradient>
<radialGradient id="paint1_angular_1_454" cx="0" cy="0" r="1" gradientUnits="userSpaceOnUse" gradientTransform="translate(5.62101 4.69333) rotate(135) scale(8.02268 27.3334)">
<stop stop-color="#5C9FF9"/>
<stop offset="1" stop-color="#0058DC"/>
</radialGradient>
<radialGradient id="paint2_angular_1_454" cx="0" cy="0" r="1" gradientUnits="userSpaceOnUse" gradientTransform="translate(5.62101 4.69333) rotate(135) scale(8.02268 27.3334)">
<stop stop-color="#5C9FF9"/>
<stop offset="1" stop-color="#0058DC"/>
</radialGradient>
<radialGradient id="paint3_angular_1_454" cx="0" cy="0" r="1" gradientUnits="userSpaceOnUse" gradientTransform="translate(5.10534 5.10534) rotate(134.4) scale(7.00242)">
<stop stop-color="#4F4F4F"/>
<stop offset="1"/>
</radialGradient>
<radialGradient id="paint4_angular_1_454" cx="0" cy="0" r="1" gradientUnits="userSpaceOnUse" gradientTransform="translate(5.62101 4.69333) rotate(135) scale(8.02268 27.3334)">
<stop stop-color="#5C9FF9"/>
<stop offset="1" stop-color="#0058DC"/>
</radialGradient>
<radialGradient id="paint5_angular_1_454" cx="0" cy="0" r="1" gradientUnits="userSpaceOnUse" gradientTransform="translate(5.10534 5.10534) rotate(134.4) scale(7.00242)">
<stop stop-color="#4F4F4F"/>
<stop offset="1"/>
</radialGradient>
<radialGradient id="paint6_angular_1_454" cx="0" cy="0" r="1" gradientUnits="userSpaceOnUse" gradientTransform="translate(2.81051 2.34666) rotate(135) scale(4.01134 13.6667)">
<stop stop-color="#5C9FF9"/>
<stop offset="1" stop-color="#0058DC"/>
</radialGradient>
<radialGradient id="paint7_angular_1_454" cx="0" cy="0" r="1" gradientUnits="userSpaceOnUse" gradientTransform="translate(2.81051 2.34666) rotate(135) scale(4.01134 13.6667)">
<stop stop-color="#5C9FF9"/>
<stop offset="1" stop-color="#0058DC"/>
</radialGradient>
<radialGradient id="paint8_angular_1_454" cx="0" cy="0" r="1" gradientUnits="userSpaceOnUse" gradientTransform="translate(2.81051 2.34666) rotate(135) scale(4.01134 13.6667)">
<stop stop-color="#5C9FF9"/>
<stop offset="1" stop-color="#0058DC"/>
</radialGradient>
</defs>
</svg>
