<svg width="19" height="19" viewBox="0 0 19 19" fill="none" xmlns="http://www.w3.org/2000/svg">
<path d="M16.1228 0H2.51096C1.12422 0 0 1.14626 0 2.56029V16.4396C0 17.8536 1.12418 18.9999 2.51096 18.9999H9.22425L9.23569 12.2104H7.50576C7.28094 12.2104 7.09847 12.025 7.09761 11.7958L7.08931 9.60723C7.08844 9.37674 7.27146 9.18943 7.49751 9.18943H9.2243V7.07473C9.2243 4.62065 10.6942 3.28438 12.8412 3.28438H14.603C14.8285 3.28438 15.0112 3.47072 15.0112 3.7006V5.546C15.0112 5.77579 14.8286 5.96208 14.6033 5.96222L13.5221 5.96273C12.3545 5.96273 12.1284 6.52847 12.1284 7.35872V9.18948H14.694C14.9385 9.18948 15.1282 9.40714 15.0994 9.65468L14.845 11.8432C14.8206 12.0527 14.6464 12.2105 14.4396 12.2105H12.1398L12.1284 19H16.1229C17.5096 19 18.6338 17.8537 18.6338 16.4398V2.56029C18.6338 1.14626 17.5096 0 16.1228 0Z" fill="white"/>
</svg>
