<svg width="130" height="128" viewBox="0 0 130 128" fill="none" xmlns="http://www.w3.org/2000/svg">
<path fill-rule="evenodd" clip-rule="evenodd" d="M65.1224 119.172C95.7996 119.172 120.668 94.4709 120.668 64C120.668 33.5291 95.7996 8.82759 65.1224 8.82759C34.4452 8.82759 9.57644 33.5291 9.57644 64C9.57644 94.4709 34.4452 119.172 65.1224 119.172ZM65.1224 128C100.708 128 129.556 99.3462 129.556 64C129.556 28.6538 100.708 0 65.1224 0C29.5369 0 0.689087 28.6538 0.689087 64C0.689087 99.3462 29.5369 128 65.1224 128Z" fill="url(#paint0_linear_1_432)"/>
<path fill-rule="evenodd" clip-rule="evenodd" d="M65.123 110.786C91.1373 110.786 112.226 89.8393 112.226 64C112.226 38.1607 91.1373 17.2138 65.123 17.2138C39.1088 17.2138 18.02 38.1607 18.02 64C18.02 89.8393 39.1088 110.786 65.123 110.786ZM65.123 119.614C96.0456 119.614 121.113 94.7147 121.113 64C121.113 33.2854 96.0456 8.38623 65.123 8.38623C34.2004 8.38623 9.13269 33.2854 9.13269 64C9.13269 94.7147 34.2004 119.614 65.123 119.614Z" fill="url(#paint1_linear_1_432)"/>
<defs>
<linearGradient id="paint0_linear_1_432" x1="75.3429" y1="4.60485e-07" x2="58.0214" y2="128.031" gradientUnits="userSpaceOnUse">
<stop stop-color="#5C9FF9"/>
<stop offset="1" stop-color="#0058DC"/>
</linearGradient>
<linearGradient id="paint1_linear_1_432" x1="59.3463" y1="119.614" x2="83.6932" y2="8.31721" gradientUnits="userSpaceOnUse">
<stop stop-color="#5C9FF9"/>
<stop offset="1" stop-color="#0058DC"/>
</linearGradient>
</defs>
</svg>
