<svg width="49" height="48" viewBox="0 0 49 48" fill="none" xmlns="http://www.w3.org/2000/svg">
<path fill-rule="evenodd" clip-rule="evenodd" d="M24.162 44.6897C35.666 44.6897 44.9918 35.4266 44.9918 24C44.9918 12.5734 35.666 3.31034 24.162 3.31034C12.6581 3.31034 3.33227 12.5734 3.33227 24C3.33227 35.4266 12.6581 44.6897 24.162 44.6897ZM24.162 48C37.5066 48 48.3245 37.2548 48.3245 24C48.3245 10.7452 37.5066 0 24.162 0C10.8174 0 -0.000488281 10.7452 -0.000488281 24C-0.000488281 37.2548 10.8174 48 24.162 48Z" fill="url(#paint0_linear_1_435)"/>
<path fill-rule="evenodd" clip-rule="evenodd" d="M24.1622 41.5445C33.9175 41.5445 41.8258 33.6894 41.8258 23.9997C41.8258 14.31 33.9175 6.45488 24.1622 6.45488C14.4068 6.45488 6.49853 14.31 6.49853 23.9997C6.49853 33.6894 14.4068 41.5445 24.1622 41.5445ZM24.1622 44.8549C35.7581 44.8549 45.1585 35.5177 45.1585 23.9997C45.1585 12.4817 35.7581 3.14453 24.1622 3.14453C12.5662 3.14453 3.16577 12.4817 3.16577 23.9997C3.16577 35.5177 12.5662 44.8549 24.1622 44.8549Z" fill="url(#paint1_linear_1_435)"/>
<defs>
<linearGradient id="paint0_linear_1_435" x1="27.9947" y1="1.72682e-07" x2="21.4991" y2="48.0117" gradientUnits="userSpaceOnUse">
<stop stop-color="#5C9FF9"/>
<stop offset="1" stop-color="#0058DC"/>
</linearGradient>
<linearGradient id="paint1_linear_1_435" x1="21.9959" y1="44.8549" x2="31.1259" y2="3.11865" gradientUnits="userSpaceOnUse">
<stop stop-color="#5C9FF9"/>
<stop offset="1" stop-color="#0058DC"/>
</linearGradient>
</defs>
</svg>
