<svg width="1523" height="464" viewBox="0 0 1523 464" fill="none" xmlns="http://www.w3.org/2000/svg">
<mask id="mask0_1_169" style="mask-type:alpha" maskUnits="userSpaceOnUse" x="0" y="-623" width="1944" height="1944">
<path d="M0 349C0 885.821 435.179 1321 972 1321C1508.82 1321 1944 885.821 1944 349C1944 -187.821 1508.82 -623 972 -623C435.179 -623 0 -187.821 0 349Z" fill="#C4C4C4" fill-opacity="0.08"/>
</mask>
<g mask="url(#mask0_1_169)">
<circle r="41.0071" transform="matrix(-1 0 0 1 923.399 338.586)" stroke="white" stroke-width="1.3"/>
<circle r="60.1" transform="matrix(-1 0 0 1 918.192 340.322)" stroke="white" stroke-width="1.3"/>
<circle r="23.65" transform="matrix(-1 0 0 1 923.399 338.586)" stroke="white" stroke-width="1.3"/>
<circle r="80.9286" transform="matrix(-1 0 0 1 911.249 340.322)" stroke="white" stroke-width="1.3"/>
<circle r="101.757" transform="matrix(-1 0 0 1 904.306 340.322)" stroke="white" stroke-width="1.3"/>
<circle r="122.185" transform="matrix(-1 0 0 1 897.459 336.907)" stroke="white" stroke-width="1.3"/>
<circle r="141.488" transform="matrix(-1 0 0 1 892.195 335.153)" stroke="white" stroke-width="1.3"/>
<circle r="159.036" transform="matrix(-1 0 0 1 888.685 331.643)" stroke="white" stroke-width="1.3"/>
<circle r="179.864" transform="matrix(-1 0 0 1 881.742 328.172)" stroke="white" stroke-width="1.3"/>
<circle r="200.693" transform="matrix(-1 0 0 1 871.328 324.7)" stroke="white" stroke-width="1.3"/>
<circle r="223.257" transform="matrix(-1 0 0 1 859.178 322.965)" stroke="white" stroke-width="1.3"/>
<circle r="245.821" transform="matrix(-1 0 0 1 850.5 317.758)" stroke="white" stroke-width="1.3"/>
<circle r="270.121" transform="matrix(-1 0 0 1 840.085 310.814)" stroke="white" stroke-width="1.3"/>
<circle r="299.629" transform="matrix(-1 0 0 1 831.406 298.665)" stroke="white" stroke-width="1.3"/>
<circle r="329.136" transform="matrix(-1 0 0 1 822.728 283.043)" stroke="white" stroke-width="1.3"/>
<circle r="356.907" transform="matrix(-1 0 0 1 812.314 276.1)" stroke="white" stroke-width="1.3"/>
<circle r="389.886" transform="matrix(-1 0 0 1 803.635 260.479)" stroke="white" stroke-width="1.3"/>
<circle r="424.6" transform="matrix(-1 0 0 1 793.221 243.122)" stroke="white" stroke-width="1.3"/>
<circle r="459.314" transform="matrix(-1 0 0 1 779.335 232.707)" stroke="white" stroke-width="1.3"/>
<circle r="500.971" transform="matrix(-1 0 0 1 775.864 208.408)" stroke="white" stroke-width="1.3"/>
<circle r="539.157" transform="matrix(-1 0 0 1 768.921 187.579)" stroke="white" stroke-width="1.3"/>
<circle r="573.871" transform="matrix(-1 0 0 1 765.45 166.75)" stroke="white" stroke-width="1.3"/>
<circle r="624.207" transform="matrix(-1 0 0 1 763.714 133.772)" stroke="white" stroke-width="1.3"/>
<circle r="672.807" transform="matrix(-1 0 0 1 753.299 106)" stroke="white" stroke-width="1.3"/>
<circle r="752.65" transform="matrix(-1 0 0 1 729 53.9289)" stroke="white" stroke-width="1.3"/>
<circle r="827.286" transform="matrix(-1 0 0 1 730.735 3.5932)" stroke="white" stroke-width="1.3"/>
<circle r="889.771" transform="matrix(-1 0 0 1 730.735 -34.5927)" stroke="white" stroke-width="1.3"/>
<circle r="934.9" transform="matrix(-1 0 0 1 730.735 -48.4782)" stroke="white" stroke-width="1.3"/>
<circle r="971.35" transform="matrix(-1 0 0 1 728.999 -50.2142)" stroke="white" stroke-width="1.3"/>
<circle r="1013.01" transform="matrix(-1 0 0 1 728.999 -50.2142)" stroke="white" stroke-width="1.3"/>
<circle r="1037.31" transform="matrix(-1 0 0 1 749.828 -36.3285)" stroke="white" stroke-width="1.3"/>
<circle r="1061.61" transform="matrix(-1 0 0 1 763.714 -15.4998)" stroke="white" stroke-width="1.3"/>
<circle r="1101.53" transform="matrix(-1 0 0 1 768.921 -13.764)" stroke="white" stroke-width="1.3"/>
<circle r="1137.98" transform="matrix(-1 0 0 1 777.599 -1.61414)" stroke="white" stroke-width="1.3"/>
<circle r="1151.86" transform="matrix(-1 0 0 1 801.899 26.1573)" stroke="white" stroke-width="1.3"/>
<circle r="1177.9" transform="matrix(-1 0 0 1 814.049 41.7789)" stroke="white" stroke-width="1.3"/>
<circle r="1177.9" transform="matrix(-1 0 0 1 827.935 100.793)" stroke="white" stroke-width="1.3"/>
<circle r="1177.9" transform="matrix(-1 0 0 1 859.178 142.45)" stroke="white" stroke-width="1.3"/>
</g>
</svg>
