<svg width="1703" height="759" viewBox="0 0 1703 759" fill="none" xmlns="http://www.w3.org/2000/svg">
<mask id="mask0_1_261" style="mask-type:alpha" maskUnits="userSpaceOnUse" x="-241" y="-316" width="1944" height="1944">
<path d="M-241 656C-241 1192.82 194.179 1628 731 1628C1267.82 1628 1703 1192.82 1703 656C1703 119.179 1267.82 -316 731 -316C194.179 -316 -241 119.179 -241 656Z" fill="#C4C4C4" fill-opacity="0.05"/>
</mask>
<g mask="url(#mask0_1_261)">
<circle r="41.0071" transform="matrix(-1 0 0 1 682.399 645.586)" stroke="white" stroke-width="1.3"/>
<circle r="60.1" transform="matrix(-1 0 0 1 677.192 647.322)" stroke="white" stroke-width="1.3"/>
<circle r="23.65" transform="matrix(-1 0 0 1 682.399 645.586)" stroke="white" stroke-width="1.3"/>
<circle r="80.9286" transform="matrix(-1 0 0 1 670.249 647.322)" stroke="white" stroke-width="1.3"/>
<circle r="101.757" transform="matrix(-1 0 0 1 663.307 647.322)" stroke="white" stroke-width="1.3"/>
<circle r="122.185" transform="matrix(-1 0 0 1 656.459 643.907)" stroke="white" stroke-width="1.3"/>
<circle r="141.488" transform="matrix(-1 0 0 1 651.195 642.153)" stroke="white" stroke-width="1.3"/>
<circle r="159.036" transform="matrix(-1 0 0 1 647.685 638.643)" stroke="white" stroke-width="1.3"/>
<circle r="179.864" transform="matrix(-1 0 0 1 640.742 635.172)" stroke="white" stroke-width="1.3"/>
<circle r="200.693" transform="matrix(-1 0 0 1 630.328 631.7)" stroke="white" stroke-width="1.3"/>
<circle r="223.257" transform="matrix(-1 0 0 1 618.178 629.965)" stroke="white" stroke-width="1.3"/>
<circle r="245.821" transform="matrix(-1 0 0 1 609.5 624.758)" stroke="white" stroke-width="1.3"/>
<circle r="270.121" transform="matrix(-1 0 0 1 599.085 617.814)" stroke="white" stroke-width="1.3"/>
<circle r="299.629" transform="matrix(-1 0 0 1 590.406 605.665)" stroke="white" stroke-width="1.3"/>
<circle r="329.136" transform="matrix(-1 0 0 1 581.728 590.043)" stroke="white" stroke-width="1.3"/>
<circle r="356.907" transform="matrix(-1 0 0 1 571.314 583.1)" stroke="white" stroke-width="1.3"/>
<circle r="389.886" transform="matrix(-1 0 0 1 562.635 567.479)" stroke="white" stroke-width="1.3"/>
<circle r="424.6" transform="matrix(-1 0 0 1 552.221 550.122)" stroke="white" stroke-width="1.3"/>
<circle r="459.314" transform="matrix(-1 0 0 1 538.335 539.707)" stroke="white" stroke-width="1.3"/>
<circle r="500.971" transform="matrix(-1 0 0 1 534.864 515.408)" stroke="white" stroke-width="1.3"/>
<circle r="539.157" transform="matrix(-1 0 0 1 527.921 494.579)" stroke="white" stroke-width="1.3"/>
<circle r="573.871" transform="matrix(-1 0 0 1 524.45 473.75)" stroke="white" stroke-width="1.3"/>
<circle r="624.207" transform="matrix(-1 0 0 1 522.714 440.772)" stroke="white" stroke-width="1.3"/>
<circle r="672.807" transform="matrix(-1 0 0 1 512.299 413)" stroke="white" stroke-width="1.3"/>
<circle r="752.65" transform="matrix(-1 0 0 1 488 360.929)" stroke="white" stroke-width="1.3"/>
<circle r="827.286" transform="matrix(-1 0 0 1 489.735 310.593)" stroke="white" stroke-width="1.3"/>
<circle r="889.771" transform="matrix(-1 0 0 1 489.735 272.407)" stroke="white" stroke-width="1.3"/>
<circle r="934.9" transform="matrix(-1 0 0 1 489.735 258.522)" stroke="white" stroke-width="1.3"/>
<circle r="971.35" transform="matrix(-1 0 0 1 487.999 256.786)" stroke="white" stroke-width="1.3"/>
<circle r="1013.01" transform="matrix(-1 0 0 1 487.999 256.786)" stroke="white" stroke-width="1.3"/>
<circle r="1037.31" transform="matrix(-1 0 0 1 508.828 270.671)" stroke="white" stroke-width="1.3"/>
<circle r="1061.61" transform="matrix(-1 0 0 1 522.714 291.5)" stroke="white" stroke-width="1.3"/>
<circle r="1101.53" transform="matrix(-1 0 0 1 527.921 293.236)" stroke="white" stroke-width="1.3"/>
<circle r="1137.98" transform="matrix(-1 0 0 1 536.6 305.386)" stroke="white" stroke-width="1.3"/>
<circle r="1151.86" transform="matrix(-1 0 0 1 560.899 333.157)" stroke="white" stroke-width="1.3"/>
<circle r="1177.9" transform="matrix(-1 0 0 1 573.049 348.779)" stroke="white" stroke-width="1.3"/>
<circle r="1177.9" transform="matrix(-1 0 0 1 586.935 407.793)" stroke="white" stroke-width="1.3"/>
<circle r="1177.9" transform="matrix(-1 0 0 1 618.178 449.45)" stroke="white" stroke-width="1.3"/>
</g>
</svg>
