<svg width="71" height="72" viewBox="0 0 71 72" fill="none" xmlns="http://www.w3.org/2000/svg">
<path d="M65.9176 57.0652V25.0469C65.9176 23.1463 64.363 21.6 62.4522 21.6C60.5415 21.6 58.9869 23.1463 58.9869 25.0469V57.6782C57.7457 58.438 56.7521 59.5218 56.1053 60.8171H38.8113V49.5575C38.8113 47.657 37.2567 46.1107 35.346 46.1107C33.4352 46.1107 31.8806 47.657 31.8806 49.5575V60.8171H14.741C13.9604 59.2533 12.6783 58.0056 11.089 57.2641V40.1362H19.9447C21.8555 40.1362 23.4101 38.5899 23.4101 36.6894C23.4101 34.7888 21.8555 33.2425 19.9447 33.2425H11.089V17.1873C12.6196 16.4713 13.8728 15.2778 14.6606 13.7873H44.5868C46.4975 13.7873 48.0521 12.241 48.0521 10.3405C48.0521 8.43991 46.4975 6.8936 44.5868 6.8936H14.8141C13.5434 4.20583 10.8128 2.45111 7.77767 2.45111C3.48909 2.45111 3.2359e-09 5.92146 3.2359e-09 10.1873C3.2359e-09 13.098 1.60861 15.706 4.15837 17.0341V57.4171C1.60875 58.7451 3.2359e-09 61.3533 3.2359e-09 64.2638C0.000141382 68.5297 3.48909 72 7.77781 72C10.7349 72 13.4373 70.3056 14.74 67.7107H56.1063C57.4088 70.3056 60.1113 72 63.0682 72C67.3568 72 70.8459 68.5297 70.8459 64.2638C70.8459 61.0581 68.8591 58.2154 65.9176 57.0652ZM15.4903 9.19155H44.5868C45.2238 9.19155 45.7418 9.70694 45.7418 10.3405C45.7418 10.974 45.2237 11.4894 44.5868 11.4894H15.4428C15.5163 11.0612 15.5553 10.6266 15.5553 10.1872C15.5553 9.85319 15.5333 9.52089 15.4903 9.19155ZM19.9447 35.5405C20.5818 35.5405 21.0998 36.0559 21.0998 36.6894C21.0998 37.323 20.5816 37.8383 19.9447 37.8383H9.93398C9.29594 37.8383 8.77892 38.3525 8.77892 38.9872V56.5924C8.44781 56.5497 8.11373 56.5276 7.77781 56.5276C7.33614 56.5276 6.89914 56.5666 6.46864 56.6396V17.8114C6.89914 17.8846 7.336 17.9234 7.77781 17.9234C8.11373 17.9234 8.44781 17.9013 8.77892 17.8586V34.3914C8.77892 35.0261 9.29594 35.5403 9.93398 35.5403H19.9447V35.5405ZM2.31027 10.1873C2.31027 7.18863 4.76291 4.74906 7.77767 4.74906C10.1103 4.74906 12.1877 6.22296 12.947 8.41656C13.1448 8.98792 13.2451 9.58375 13.2451 10.1873C13.2451 10.884 13.113 11.5646 12.8525 12.2106V12.2109C12.2601 13.6783 11.0594 14.815 9.55777 15.3291C8.98335 15.5259 8.38433 15.6256 7.77753 15.6256C7.07714 15.6256 6.39287 15.4942 5.74337 15.235C5.74309 15.2349 5.74295 15.2349 5.74266 15.2348C3.65761 14.4018 2.31027 12.421 2.31027 10.1873ZM12.9029 66.1609C12.9029 66.161 12.9028 66.1613 12.9028 66.1614C12.1098 68.2791 10.0503 69.7021 7.77767 69.7021C4.76291 69.7021 2.31027 67.2625 2.31027 64.2638C2.31027 62.0301 3.65761 60.0491 5.74281 59.2164C5.74309 59.2162 5.74337 59.2162 5.74351 59.2161C6.39301 58.9569 7.07728 58.8256 7.77767 58.8256C8.38447 58.8256 8.98349 58.9253 9.55791 59.122C11.1108 59.6539 12.3299 60.8365 12.9029 62.3669C13.1301 62.9737 13.2454 63.6119 13.2454 64.264C13.2454 64.916 13.1301 65.5541 12.9029 66.1609ZM55.3778 65.4127H15.4683C15.5251 65.0342 15.5555 64.6507 15.5555 64.2638C15.5555 63.877 15.5251 63.4935 15.4683 63.1149H33.0358C33.6739 63.1149 34.1909 62.6007 34.1909 61.966V49.5575C34.1909 48.9239 34.7091 48.4086 35.346 48.4086C35.983 48.4086 36.501 48.924 36.501 49.5575V61.966C36.501 62.6007 37.0181 63.1149 37.6561 63.1149H55.3776C55.3208 63.4935 55.2904 63.877 55.2904 64.2638C55.2904 64.6507 55.3209 65.0343 55.3778 65.4127ZM61.2972 25.0469C61.2972 24.4132 61.8153 23.898 62.4522 23.898C63.0893 23.898 63.6073 24.4134 63.6073 25.0469V56.5473C63.428 56.5349 63.2483 56.5278 63.0682 56.5278C62.4645 56.5278 61.8727 56.5951 61.297 56.7289V25.0469H61.2972ZM63.0682 69.7022C60.7956 69.7022 58.7361 68.2792 57.9432 66.1616C57.9432 66.1614 57.9431 66.1611 57.9431 66.161C57.7159 65.5542 57.6007 64.916 57.6007 64.264C57.6007 63.6119 57.7159 62.9737 57.9431 62.3669C58.4316 61.0618 59.3941 60.0026 60.6532 59.3846C61.4087 59.0137 62.2214 58.8256 63.0681 58.8256C63.5406 58.8256 64.0115 58.8863 64.4674 59.006C66.8628 59.6347 68.5355 61.7968 68.5355 64.2638C68.5358 67.2626 66.0831 69.7022 63.0682 69.7022Z" fill="white"/>
<path d="M70.6616 6.40252L64.5631 0.336375C64.3464 0.121078 64.0526 0 63.7461 0C63.4397 0 63.146 0.121219 62.9292 0.336656L35.1698 27.9619L29.0636 34.0355C29.0578 34.0412 29.0527 34.0478 29.0469 34.0539C29.0293 34.0723 29.012 34.091 28.9955 34.1106C28.9898 34.1173 28.9839 34.1241 28.9784 34.1308C28.9737 34.1364 28.9698 34.1425 28.9652 34.1483C28.9525 34.1648 28.9399 34.1814 28.928 34.1987C28.9198 34.2105 28.9119 34.2225 28.9043 34.2346C28.9003 34.2411 28.8962 34.2472 28.8924 34.2537C28.8849 34.2662 28.8774 34.279 28.8702 34.292C28.8603 34.3095 28.8513 34.3277 28.8424 34.3457C28.839 34.3526 28.8352 34.3593 28.8319 34.3662C28.8281 34.3745 28.8246 34.383 28.821 34.3914C28.8113 34.4137 28.8025 34.4364 28.7944 34.4595C28.7913 34.468 28.7875 34.476 28.7845 34.4846L27.2599 39.0343L25.8285 43.3056L24.1182 45.0068C23.6671 45.4556 23.6671 46.1829 24.1182 46.6317C24.3438 46.856 24.6395 46.968 24.9351 46.968C25.2306 46.968 25.5263 46.856 25.752 46.6317L27.4344 44.9582L36.3444 42.0041C36.3535 42.001 36.362 41.9971 36.3709 41.9937C36.3931 41.9857 36.4153 41.9775 36.437 41.968C36.4457 41.9643 36.4545 41.9608 36.463 41.9567C36.4702 41.9534 36.4771 41.9494 36.4843 41.946C36.5021 41.9375 36.5198 41.9286 36.5373 41.9189C36.5502 41.9117 36.5632 41.9046 36.5758 41.8968C36.5826 41.8929 36.5892 41.8887 36.5959 41.8845C36.6079 41.8769 36.6199 41.869 36.6318 41.8608C36.6487 41.8492 36.6651 41.8372 36.6814 41.8248C36.6876 41.82 36.694 41.8158 36.7001 41.8109C36.7071 41.8053 36.7141 41.7992 36.721 41.7933C36.7396 41.7779 36.7573 41.7617 36.7747 41.7451C36.7815 41.7386 36.7887 41.733 36.7955 41.7264L52.0419 26.5613C52.0626 26.5407 52.0821 26.5198 52.1007 26.4981L70.6618 8.02702C71.1128 7.57842 71.1126 6.85097 70.6616 6.40252ZM28.6577 42.1304L29.4519 39.761L30.3855 36.9751L33.8408 40.412L28.6577 42.1304ZM50.4063 24.9345C50.3858 24.9549 50.3664 24.9757 50.3478 24.9972L35.979 39.2892L31.5141 34.848L36.8036 29.5867L63.7464 2.77397L68.2114 7.21505L50.4063 24.9345Z" fill="white"/>
</svg>
