<svg width="82" height="82" viewBox="0 0 82 82" fill="none" xmlns="http://www.w3.org/2000/svg">
<path d="M81.842 41C81.842 63.6437 63.5211 82 40.921 82C18.3209 82 0 63.6437 0 41C0 18.3563 18.3209 0 40.921 0C63.5211 0 81.842 18.3563 81.842 41Z" fill="white"/>
<path d="M32.7021 54.2214C33.0503 54.5487 33.3775 54.8983 33.6817 55.2682C35.0537 57.0297 36.9122 58.3355 39.0193 59.0184C40.5529 59.4991 42.2108 59.3491 43.6358 58.6006C45.6611 57.5193 47.5708 56.2285 49.3347 54.7486C51.4882 53.0056 53.5033 51.0934 55.3615 49.0296C56.9177 47.3642 58.3295 45.5657 59.5811 43.6539C61.1237 41.2963 62.399 38.9217 62.7411 36.1985C62.9209 34.9001 62.6613 33.578 62.0048 32.4484C61.3482 31.3189 60.3336 30.4489 59.1269 29.9806C58.8511 29.871 58.4759 29.6988 58.0523 29.5702C57.8532 31.1569 57.6817 33.1426 57.4743 34.6439C57.1054 37.4531 56.9409 40.2947 56.1703 43.032C55.7965 44.6164 54.8547 46.0025 53.5285 46.9197C52.302 47.7051 50.8429 48.0293 49.4049 47.8358C48.7639 47.7447 48.133 47.5901 47.5215 47.3744C46.369 47.0291 45.3699 46.2893 44.6938 45.2809C44.0178 44.2724 43.7065 43.0576 43.813 41.8429C43.8098 41.6503 43.8973 41.4135 43.8966 41.3708C44.9608 38.543 46.9818 37.5257 49.6563 37.803C50.5801 37.8844 51.4649 38.2188 52.2163 38.7705C52.9678 39.3222 53.5576 40.0707 53.923 40.9359C53.179 41.8469 52.9828 41.8857 52.2996 41.3477C51.7773 40.875 51.2282 40.4338 50.6551 40.0264C50.0327 39.6335 49.305 39.4479 48.5737 39.4956C47.8425 39.5433 47.1444 39.822 46.5772 40.2927C46.2786 40.4919 46.032 40.7617 45.8585 41.0788C45.685 41.3959 45.5898 41.7509 45.5809 42.1136C45.5388 42.5054 45.5784 42.9018 45.6971 43.2771C45.8158 43.6525 46.0109 43.9983 46.2698 44.2921C47.1341 45.1661 48.2756 45.7009 49.4913 45.8016C50.4949 46.0322 51.5473 45.8592 52.4274 45.3186C52.947 44.9855 53.3964 44.5515 53.7498 44.0414C54.1033 43.5313 54.3538 42.9551 54.487 42.3462C54.8449 40.5928 55.0618 38.8132 55.2858 37.0335C55.6538 34.1744 55.9523 31.3521 56.2644 28.5081C56.4421 26.9074 56.5916 25.3001 56.7553 23.6997C56.7973 23.2639 56.8844 22.5706 56.9657 21.9487C56.5719 21.895 56.1734 21.8872 55.7779 21.9253C54.234 22.0433 53.1609 22.1606 51.6258 22.3854C50.1389 22.6494 48.6901 23.0996 47.3124 23.7255C45.2189 24.6013 43.2472 25.6321 40.9079 25.6632C39.4124 25.6433 37.9357 25.3207 36.5643 24.7141C35.2205 24.1654 33.9306 23.4875 32.5798 22.946C31.2719 22.4131 29.849 22.2395 28.4543 22.4428C26.3535 22.6496 24.3308 23.3572 22.5507 24.5078C21.6019 25.1971 20.795 26.068 20.1754 27.0716C19.2819 28.5848 18.8234 30.3218 18.8517 32.0862C18.8189 34.6625 19.4796 37.1994 20.7627 39.4231C21.0306 39.911 21.2639 40.4278 21.4894 40.902C21.0057 41.1541 20.5013 41.3628 19.9819 41.5258C19.0479 39.9718 18.2546 38.3351 17.6118 36.6358C16.9485 34.7974 16.7309 32.8242 16.9772 30.8828C17.1366 28.6898 17.9787 26.6053 19.3817 24.9305C21.5542 22.4199 24.2814 21.1913 27.5041 20.618C30.0088 20.234 32.5695 20.643 34.8375 21.7893C35.7718 22.2092 36.6791 22.7008 37.6339 23.0846C39.4655 23.8607 41.5164 23.9137 43.3838 23.2333C44.1802 22.9492 44.9693 22.651 45.7294 22.2963C48.5927 20.9902 51.6911 20.2985 54.8304 20.2646C55.3994 20.2553 55.9605 20.1962 56.5638 20.1364C57.1158 20.0642 57.6757 20.1859 58.1503 20.4814C58.8182 20.9342 58.9115 21.489 58.7829 22.6537C58.5986 24.283 58.5497 26.0314 58.4414 27.5809C59.4398 28.0497 60.204 28.3796 60.9631 28.8308C61.8686 29.3675 62.6533 30.0909 63.2665 30.9544C63.8796 31.818 64.3075 32.8024 64.5226 33.8441C65.1243 36.2737 64.2178 38.4283 63.3956 40.5816C62.3447 43.0732 60.9066 45.3772 59.1363 47.4059C57.1829 49.7713 55.1089 52.0312 52.9228 54.1765C50.1185 56.9757 46.8461 59.2462 43.2584 60.8822C42.1683 61.3271 40.9748 61.4432 39.821 61.2165C37.1346 60.7088 34.694 59.2991 32.8912 57.2141C32.3407 56.5919 31.8257 55.9382 31.3488 55.2563C31.3488 55.2563 31.7507 54.9145 32.7021 54.2214Z" fill="url(#paint0_linear_1_234)"/>
<path d="M54.8231 27.1692C54.4473 27.1253 54.0691 27.1053 53.6909 27.1092C52.0546 27.0678 50.4216 27.2748 48.8458 27.7233C47.0981 28.2587 45.4302 29.0321 43.8875 30.0226C43.0635 30.5137 42.1432 30.8152 41.1917 30.9059C40.2402 30.9966 39.2806 30.8743 38.3805 30.5476C37.3344 30.1652 36.2616 29.8689 35.1822 29.6012C34.9873 29.5361 34.7807 29.5151 34.577 29.5398C34.512 31.16 34.4794 32.6156 34.3767 34.0723C34.1749 36.9288 33.9499 39.8046 33.702 42.6998C33.626 44.1166 33.4494 45.5259 33.1733 46.9168C32.9275 48.3581 32.2264 49.679 31.1758 50.6798C30.5539 51.1293 29.8482 51.4454 29.1019 51.6088C28.3555 51.7722 27.5841 51.7795 26.8347 51.6302C26.0853 51.4809 25.3737 51.1782 24.7433 50.7404C24.1129 50.3028 23.5769 49.7393 23.1681 49.0844C22.401 47.7132 23.1032 45.0983 24.6141 44.6813C25.5353 44.3642 26.531 44.3456 27.4633 44.6282C28.3956 44.9107 29.2184 45.4803 29.8181 46.2582C30.1339 46.6668 30.3653 47.0696 30.6731 47.4212C31.1585 47.2585 31.6259 47.0453 32.068 46.785C31.2344 44.3449 28.4441 42.5645 25.817 42.6074C23.6681 42.6782 21.2723 44.4148 21.1145 46.807C21.1158 46.8854 21.1172 46.9709 21.1184 47.0493C21.0622 47.5989 21.0879 48.154 21.1944 48.6958C21.276 49.0339 21.3993 49.3603 21.5615 49.667C22.0011 50.5094 22.6075 51.2505 23.3426 51.8436C24.0778 52.4368 24.9258 52.8692 25.8333 53.1137C29.5131 54.2876 33.8066 52.5912 34.7723 48.0319C35.3262 44.8958 35.648 41.7218 35.7351 38.5367C35.8421 36.9086 35.9545 36.0438 36.087 34.2513C36.1442 33.4515 36.1404 32.7882 36.2554 31.6522C36.7915 31.7789 38.0091 32.3368 38.644 32.4976C39.1447 32.6036 39.667 32.752 40.1739 32.815C41.9155 32.9432 43.6504 32.489 45.1134 31.5218C46.9041 30.3911 48.8975 29.6313 50.9791 29.2862L54.5586 29.0495L54.8231 27.1692Z" fill="url(#paint1_linear_1_234)"/>
<defs>
<linearGradient id="paint0_linear_1_234" x1="64.4658" y1="19.9027" x2="65.1357" y2="60.9359" gradientUnits="userSpaceOnUse">
<stop stop-color="#EA86CE"/>
<stop offset="1" stop-color="#74B7FA"/>
</linearGradient>
<linearGradient id="paint1_linear_1_234" x1="54.8216" y1="27.0767" x2="55.2454" y2="53.0322" gradientUnits="userSpaceOnUse">
<stop stop-color="#EA86CE"/>
<stop offset="1" stop-color="#74B7FA"/>
</linearGradient>
</defs>
</svg>
