<svg width="25" height="35" viewBox="0 0 25 35" fill="none" xmlns="http://www.w3.org/2000/svg">
<path d="M0.918762 11.6507C0.918762 5.51981 6.09715 0.5 12.5 0.5C18.9027 0.5 24.0813 5.51981 24.0813 11.6507V23.319C24.0813 29.4499 18.9029 34.4691 12.5 34.4691C6.09712 34.4691 0.918762 29.4497 0.918762 23.319V11.6507ZM12.5 34.1739C18.6803 34.1739 23.7389 29.322 23.7389 23.319V11.6507C23.7389 5.64757 18.6803 0.795132 12.5 0.795132C6.31972 0.795132 1.2611 5.64775 1.2611 11.6507V23.319C1.2611 29.322 6.31976 34.1739 12.5 34.1739Z" fill="#333333" stroke="#333333"/>
<path d="M12.3286 4.53339C12.3286 4.46844 12.3881 4.38574 12.4998 4.38574C12.6113 4.38574 12.671 4.46828 12.6711 4.53363L12.6711 10.3976C12.6711 10.4626 12.6115 10.5453 12.4998 10.5453C12.3881 10.5453 12.3286 10.4626 12.3286 10.3976V4.53339Z" fill="#333333" stroke="#333333"/>
</svg>
