<svg width="49" height="42" viewBox="0 0 49 42" fill="none" xmlns="http://www.w3.org/2000/svg">
<path d="M16.7021 34.2214C17.0503 34.5487 17.3775 34.8983 17.6817 35.2682C19.0537 37.0297 20.9122 38.3355 23.0193 39.0184C24.5529 39.4991 26.2108 39.3491 27.6358 38.6006C29.6611 37.5193 31.5708 36.2285 33.3347 34.7486C35.4882 33.0056 37.5033 31.0934 39.3615 29.0296C40.9177 27.3642 42.3295 25.5657 43.5811 23.6539C45.1237 21.2963 46.399 18.9217 46.7411 16.1985C46.9209 14.9001 46.6613 13.578 46.0048 12.4484C45.3482 11.3189 44.3336 10.4489 43.1269 9.98064C42.8511 9.87104 42.4759 9.69881 42.0523 9.57021C41.8532 11.1569 41.6817 13.1426 41.4743 14.6439C41.1054 17.4531 40.9409 20.2947 40.1703 23.032C39.7965 24.6164 38.8547 26.0025 37.5285 26.9197C36.302 27.7051 34.8429 28.0293 33.4049 27.8358C32.7639 27.7447 32.133 27.5901 31.5215 27.3744C30.369 27.0291 29.3699 26.2893 28.6938 25.2809C28.0178 24.2724 27.7065 23.0576 27.813 21.8429C27.8098 21.6503 27.8973 21.4135 27.8966 21.3708C28.9608 18.543 30.9818 17.5257 33.6563 17.803C34.5801 17.8844 35.4649 18.2188 36.2163 18.7705C36.9678 19.3222 37.5576 20.0707 37.923 20.9359C37.179 21.8469 36.9828 21.8857 36.2996 21.3477C35.7773 20.875 35.2282 20.4338 34.6551 20.0264C34.0327 19.6335 33.305 19.4479 32.5737 19.4956C31.8425 19.5433 31.1444 19.822 30.5772 20.2927C30.2786 20.4919 30.032 20.7617 29.8585 21.0788C29.685 21.3959 29.5898 21.7509 29.5809 22.1136C29.5388 22.5054 29.5784 22.9018 29.6971 23.2771C29.8158 23.6525 30.0109 23.9983 30.2698 24.2921C31.1341 25.1661 32.2756 25.7009 33.4913 25.8016C34.4949 26.0322 35.5473 25.8592 36.4274 25.3186C36.947 24.9855 37.3964 24.5515 37.7498 24.0414C38.1033 23.5313 38.3538 22.9551 38.487 22.3462C38.8449 20.5928 39.0618 18.8132 39.2858 17.0335C39.6538 14.1744 39.9523 11.3521 40.2644 8.5081C40.4421 6.90744 40.5916 5.30013 40.7553 3.69971C40.7973 3.26392 40.8844 2.57062 40.9657 1.94874C40.5719 1.89501 40.1734 1.88716 39.7779 1.92533C38.234 2.04327 37.1609 2.16065 35.6258 2.38543C34.1389 2.64944 32.6901 3.09956 31.3124 3.72549C29.2189 4.60135 27.2472 5.63213 24.9079 5.66319C23.4124 5.64331 21.9357 5.32065 20.5643 4.71412C19.2205 4.16543 17.9306 3.48748 16.5798 2.94604C15.2719 2.41312 13.849 2.23954 12.4543 2.44278C10.3535 2.64961 8.33077 3.35716 6.55071 4.50782C5.60192 5.19712 4.79503 6.06803 4.17539 7.07162C3.28189 8.58483 2.82338 10.3218 2.8517 12.0862C2.81885 14.6625 3.47962 17.1994 4.76272 19.4231C5.03062 19.911 5.26387 20.4278 5.4894 20.902C5.00575 21.1541 4.50133 21.3628 3.98188 21.5258C3.04789 19.9718 2.25461 18.3351 1.6118 16.6358C0.948546 14.7974 0.730885 12.8242 0.97721 10.8828C1.13662 8.68976 1.97867 6.6053 3.38174 4.93047C5.55416 2.41992 8.28143 1.19135 11.5041 0.618036C14.0088 0.234035 16.5695 0.643031 18.8375 1.78934C19.7718 2.20918 20.6791 2.7008 21.6339 3.08464C23.4655 3.86068 25.5164 3.9137 27.3838 3.23328C28.1802 2.94923 28.9693 2.65104 29.7294 2.29625C32.5927 0.990204 35.6911 0.298543 38.8304 0.264598C39.3994 0.255307 39.9605 0.196216 40.5638 0.136436C41.1158 0.0642019 41.6757 0.185948 42.1503 0.481438C42.8182 0.934163 42.9115 1.489 42.7829 2.65374C42.5986 4.28303 42.5497 6.03136 42.4414 7.58094C43.4398 8.04971 44.204 8.37961 44.9631 8.83077C45.8686 9.36745 46.6533 10.0909 47.2665 10.9544C47.8796 11.818 48.3075 12.8024 48.5226 13.8441C49.1243 16.2737 48.2178 18.4283 47.3956 20.5816C46.3447 23.0732 44.9066 25.3772 43.1363 27.4059C41.1829 29.7713 39.1089 32.0312 36.9228 34.1765C34.1185 36.9757 30.8461 39.2462 27.2584 40.8822C26.1683 41.3271 24.9748 41.4432 23.821 41.2165C21.1346 40.7088 18.694 39.2991 16.8912 37.2141C16.3407 36.5919 15.8257 35.9382 15.3488 35.2563C15.3488 35.2563 15.7507 34.9145 16.7021 34.2214Z" fill="url(#paint0_linear_1_243)"/>
<defs>
<linearGradient id="paint0_linear_1_243" x1="48.4658" y1="-0.0972865" x2="49.1357" y2="40.9359" gradientUnits="userSpaceOnUse">
<stop stop-color="#EA86CE"/>
<stop offset="1" stop-color="#74B7FA"/>
</linearGradient>
</defs>
</svg>
