<svg width="42" height="57" viewBox="0 0 42 57" fill="none" xmlns="http://www.w3.org/2000/svg">
<path d="M36.501 0.00193887H30.4177C17.825 0.0161962 7.6201 10.2211 7.60584 22.8137V25.3702L0.190551 38.8078C0.0670812 39.0329 0.0022099 39.2856 0.00192475 39.5424C-0.000641584 39.6288 -0.000641584 39.7153 0.00192475 39.8017C0.0734971 42.2498 2.11616 44.1764 4.5643 44.1047C5.6704 44.1662 6.73143 44.5635 7.60584 45.2437V50.1878C7.60242 50.304 7.60242 50.4203 7.60584 50.5367C7.70222 53.7999 10.4257 56.3674 13.6891 56.271H22.8138C22.9002 56.2735 22.9868 56.2735 23.0732 56.271C25.5213 56.1994 27.4479 54.1567 27.3762 51.7086V42.5839H24.3347V51.7086C24.3435 51.799 24.3435 51.8901 24.3347 51.9805C24.2595 52.7454 23.5787 53.3044 22.8138 53.2294H13.6891C13.5677 53.2371 13.446 53.2371 13.3246 53.2294C11.7455 53.1288 10.5469 51.7671 10.6475 50.1879V44.5185C10.6477 44.0829 10.461 43.6682 10.135 43.3795C8.60971 41.9741 6.63634 41.1536 4.5643 41.0633C4.5576 41.0642 4.55076 41.0649 4.54406 41.0656C3.8108 41.1433 3.15325 40.6119 3.0754 39.8785L10.4589 26.4956C10.5824 26.2704 10.6472 26.0178 10.6475 25.761V22.8137C10.6601 11.9002 19.5042 3.05601 30.4179 3.04347H36.4828C36.5754 3.03363 36.6688 3.03306 36.7614 3.04175C37.5299 3.11404 38.0942 3.79569 38.0219 4.56416V12.168H41.0635V4.5643C41.066 4.4779 41.066 4.39136 41.0635 4.30496C40.9918 1.85682 38.9491 -0.0697758 36.501 0.00193887Z" fill="#005DE8"/>
</svg>
