<svg width="43" height="28" viewBox="0 0 43 28" fill="none" xmlns="http://www.w3.org/2000/svg">
<path d="M38.3548 0.625963H21.626V3.66749H38.3547C38.4451 3.65865 38.5362 3.65865 38.6266 3.66749C39.3915 3.74262 39.9507 4.42342 39.8755 5.18832V8.06261C39.6565 8.97052 38.1904 14.313 33.7923 14.313C32.9524 14.313 32.2715 14.994 32.2715 15.8339V24.9586H3.3765V20.3962H0.33496V26.4794C0.33496 27.3193 1.0159 28.0003 1.8558 28.0003H33.7924C34.6324 28.0003 35.3133 27.3193 35.3133 26.4794V17.2208C40.0673 16.3221 42.3332 11.3064 42.8868 8.5341C42.9072 8.43401 42.9173 8.33208 42.9172 8.22999V5.18847C42.9198 5.10207 42.9198 5.01553 42.9172 4.92913C42.8456 2.48085 40.803 0.554249 38.3548 0.625963Z" fill="#005DE8"/>
</svg>
