<svg width="73" height="76" viewBox="0 0 73 76" fill="none" xmlns="http://www.w3.org/2000/svg">
<path d="M72.8272 14.3356C72.4714 13.7217 71.6835 13.5112 71.0676 13.8658L66.4463 16.5249C60.1833 6.6062 49.102 0 36.4997 0C23.8973 0 12.816 6.60605 6.55302 16.5246L1.93258 13.8657C1.31656 13.5113 0.528666 13.7214 0.172846 14.3355C-0.182973 14.9496 0.0282249 15.7346 0.644244 16.0893L5.26126 18.7461C2.6335 23.6702 1.14156 29.2837 1.14156 35.239C1.14156 54.2391 16.3088 69.7725 35.2098 70.4517V74.7162C35.2098 75.4251 35.7865 76 36.498 76C37.2095 76 37.7862 75.4253 37.7862 74.7162V70.4516C56.689 69.7741 71.8579 54.24 71.8579 35.2387C71.8579 29.2835 70.366 23.6701 67.7381 18.7463L72.3558 16.0893C72.9718 15.7346 73.1829 14.9496 72.8272 14.3356ZM69.2815 35.2387C69.2815 53.2536 54.5754 67.9097 36.4997 67.9097C18.4236 67.9097 3.71764 53.2536 3.71764 35.2387C3.71764 17.2238 18.4236 2.56752 36.4997 2.56752C54.5757 2.56752 69.2815 17.2239 69.2815 35.2387Z" fill="#005DE8"/>
</svg>
