<svg width="35" height="38" viewBox="0 0 35 38" fill="none" xmlns="http://www.w3.org/2000/svg">
<path d="M33.479 14.2517H29.645C29.484 13.7999 29.2998 13.3567 29.093 12.924L31.806 10.211C32.3997 9.61718 32.3997 8.65452 31.806 8.06056L27.5037 3.75825C26.9099 3.16457 25.9472 3.16457 25.3532 3.75825L22.6402 6.47129C22.2073 6.26527 21.7642 6.08163 21.3125 5.92081V2.08529C21.3125 1.24539 20.6316 0.564453 19.7917 0.564453H13.7086C12.8687 0.564453 12.1878 1.24539 12.1878 2.08529V5.92067C11.3597 6.21308 10.5621 6.58534 9.80622 7.03231L11.3513 9.65111C12.2065 9.14768 13.1279 8.7663 14.0887 8.51808C14.7601 8.34471 15.2292 7.73934 15.2293 7.046V3.60612H18.2709V7.04614C18.27 7.73919 18.7378 8.34513 19.4085 8.51979C20.3693 8.76801 21.2907 9.14939 22.1459 9.65282C22.7436 10.006 23.5045 9.9096 23.9952 9.41857L26.4285 6.98526L28.5804 9.13257L26.1471 11.5659C25.6556 12.0562 25.5587 12.8172 25.9114 13.4152C26.4158 14.2702 26.7982 15.1917 27.0474 16.1526C27.2207 16.8234 27.8253 17.2924 28.5181 17.2932H31.9581V20.3333H28.5211C27.8283 20.3342 27.2237 20.8031 27.0504 21.4739C26.8012 22.4348 26.4188 23.3563 25.9144 24.2113C25.5617 24.8093 25.6586 25.5702 26.1501 26.0606L28.5834 28.4939L26.433 30.6444L23.9996 28.2111C23.5089 27.7201 22.748 27.6237 22.1503 27.9768C21.2951 28.4803 20.3737 28.8616 19.4129 29.1099C18.7415 29.2832 18.2724 29.8886 18.2723 30.5819V34.022H15.2307V30.5835C15.2306 29.8902 14.7615 29.2847 14.0901 29.1114C13.1293 28.8632 12.2079 28.4818 11.3527 27.9784C10.7551 27.6252 9.99413 27.7216 9.50339 28.2127L7.07036 30.6457L4.91991 28.4952L7.35323 26.0619C7.84468 25.5716 7.94177 24.8106 7.5889 24.2126C7.08447 23.3576 6.70209 22.4361 6.45287 21.4752C6.27964 20.8044 5.67498 20.3354 4.98222 20.3346H0.0214833V23.3761H3.85688C4.01727 23.8279 4.20105 24.2711 4.40735 24.7038L1.69431 27.4168C1.10063 28.0106 1.10063 28.9733 1.69431 29.5672L5.99663 33.8696C6.59045 34.4632 7.55312 34.4632 8.14708 33.8696L10.8601 31.1565C11.293 31.3625 11.7361 31.5462 12.1878 31.707V35.5424C12.1878 36.3823 12.8687 37.0632 13.7086 37.0632H19.7918C20.6317 37.0632 21.3127 36.3823 21.3127 35.5424V31.7084C21.7644 31.5476 22.2075 31.3638 22.6403 31.1579L25.3534 33.8696C25.9472 34.4632 26.9099 34.4632 27.5038 33.8696L31.8062 29.5672C32.3998 28.9734 32.3998 28.0108 31.8062 27.4168L29.0915 24.7038C29.2984 24.2711 29.4826 23.8279 29.6436 23.3761H33.479C34.3189 23.3761 34.9998 22.6952 34.9998 21.8553V15.7724C34.9997 14.9325 34.3189 14.2517 33.479 14.2517Z" fill="#005DE8"/>
</svg>
