<svg width="51" height="59" viewBox="0 0 51 59" fill="none" xmlns="http://www.w3.org/2000/svg">
<path d="M50.1112 14.3043L26.1437 0.513936C25.7453 0.2846 25.2543 0.2846 24.8557 0.513936L0.886811 14.3032C0.488245 14.5325 0.24279 14.9563 0.24279 15.4151L0.245173 43.5594C0.245173 44.0178 0.490628 44.4414 0.888896 44.6707L24.8539 58.4713C25.0534 58.5861 25.2759 58.6434 25.4984 58.6434C25.7206 58.6434 25.9431 58.5861 26.1424 58.4714L50.1112 44.6816C50.5096 44.4522 50.7552 44.0285 50.7552 43.5696V15.4161C50.7553 14.9573 50.5097 14.5337 50.1112 14.3043ZM24.2098 55.135L2.82125 42.8184L2.81917 17.639L24.2117 29.9483L24.2098 55.135ZM25.4997 27.7247L4.10706 15.4153L25.4997 3.10817L46.8906 15.4161L25.4997 27.7247ZM26.786 55.1362L26.7878 29.9481L48.1785 17.6397V42.8283H48.1786L26.786 55.1362Z" fill="#005DE8"/>
</svg>
