<svg width="70" height="70" viewBox="0 0 70 70" fill="none" xmlns="http://www.w3.org/2000/svg">
<path d="M68.8333 60.6667H67.6667V18.6667C67.6667 16.0894 65.5773 14 63 14H56V4.66667C56 2.08935 53.9106 0 51.3333 0H18.6667C16.0894 0 14 2.08935 14 4.66667V14H7C4.42269 14 2.33333 16.0894 2.33333 18.6667V60.6667H1.16667C0.522375 60.6667 0 61.189 0 61.8333V65.3333C0 67.9106 2.08935 70 4.66667 70H65.3333C67.9106 70 70 67.9106 70 65.3333V61.8333C70 61.189 69.4776 60.6667 68.8333 60.6667ZM16.3333 4.66667C16.3333 3.37794 17.3779 2.33333 18.6667 2.33333H51.3333C52.6221 2.33333 53.6667 3.37794 53.6667 4.66667V9.33333H16.3333V4.66667ZM16.3333 11.6667H53.6667V45.5C53.6667 46.7887 52.6221 47.8333 51.3333 47.8333H18.6667C17.3779 47.8333 16.3333 46.7887 16.3333 45.5V11.6667ZM18.6667 50.1667H51.3333C53.9106 50.1667 56 48.0773 56 45.5V21H60.6667V53.6667H9.33333V21H14V45.5C14 48.0773 16.0894 50.1667 18.6667 50.1667ZM4.66667 18.6667C4.66667 17.3779 5.71127 16.3333 7 16.3333H14V18.6667H8.16667C7.52237 18.6667 7 19.189 7 19.8333V54.8333C7 55.4776 7.52237 56 8.16667 56H61.8333C62.4776 56 63 55.4776 63 54.8333V19.8333C63 19.189 62.4776 18.6667 61.8333 18.6667H56V16.3333H63C64.2887 16.3333 65.3333 17.3779 65.3333 18.6667V60.6667H45.5C45.1908 60.6664 44.8941 60.789 44.6752 61.0073L42.6837 63H27.3163L25.3248 61.0073C25.1059 60.789 24.8092 60.6664 24.5 60.6667H4.66667V18.6667ZM67.6667 65.3333C67.6667 66.6221 66.6221 67.6667 65.3333 67.6667H4.66667C3.37794 67.6667 2.33333 66.6221 2.33333 65.3333V63H24.017L26.0085 64.9915C26.2272 65.2103 26.5239 65.3333 26.8333 65.3333H43.1667C43.4761 65.3333 43.7728 65.2103 43.9915 64.9915L45.983 63H67.6667V65.3333Z" fill="#005DE8"/>
</svg>
