<svg width="71" height="70" viewBox="0 0 71 70" fill="none" xmlns="http://www.w3.org/2000/svg">
<path d="M65.9176 55.0652V23.0469C65.9176 21.1463 64.363 19.6 62.4522 19.6C60.5415 19.6 58.9869 21.1463 58.9869 23.0469V55.6782C57.7457 56.438 56.7521 57.5218 56.1053 58.8171H38.8113V47.5575C38.8113 45.657 37.2567 44.1107 35.346 44.1107C33.4352 44.1107 31.8806 45.657 31.8806 47.5575V58.8171H14.741C13.9604 57.2534 12.6783 56.0056 11.089 55.2641V38.1362H19.9447C21.8555 38.1362 23.4101 36.5899 23.4101 34.6894C23.4101 32.7888 21.8555 31.2425 19.9447 31.2425H11.089V15.1873C12.6196 14.4713 13.8728 13.2778 14.6606 11.7873H44.5868C46.4975 11.7873 48.0521 10.241 48.0521 8.34046C48.0521 6.43991 46.4975 4.8936 44.5868 4.8936H14.8141C13.5434 2.20583 10.8128 0.451111 7.77767 0.451111C3.48909 0.451111 3.2359e-09 3.92146 3.2359e-09 8.18731C3.2359e-09 11.098 1.60861 13.706 4.15837 15.0341V55.4171C1.60875 56.7451 3.2359e-09 59.3533 3.2359e-09 62.2638C0.000141382 66.5297 3.48909 70 7.77781 70C10.7349 70 13.4373 68.3056 14.74 65.7107H56.1063C57.4088 68.3056 60.1113 70 63.0682 70C67.3568 70 70.8459 66.5297 70.8459 62.2638C70.8459 59.0581 68.8591 56.2154 65.9176 55.0652ZM15.4903 7.19155H44.5868C45.2238 7.19155 45.7418 7.70694 45.7418 8.34046C45.7418 8.97397 45.2237 9.48936 44.5868 9.48936H15.4428C15.5163 9.06116 15.5553 8.62663 15.5553 8.18717C15.5553 7.85319 15.5333 7.52089 15.4903 7.19155ZM19.9447 33.5405C20.5818 33.5405 21.0998 34.0559 21.0998 34.6894C21.0998 35.323 20.5816 35.8383 19.9447 35.8383H9.93398C9.29594 35.8383 8.77892 36.3525 8.77892 36.9872V54.5924C8.44781 54.5497 8.11373 54.5276 7.77781 54.5276C7.33614 54.5276 6.89914 54.5666 6.46864 54.6396V15.8114C6.89914 15.8846 7.336 15.9234 7.77781 15.9234C8.11373 15.9234 8.44781 15.9013 8.77892 15.8586V32.3914C8.77892 33.0261 9.29594 33.5403 9.93398 33.5403H19.9447V33.5405ZM2.31027 8.18731C2.31027 5.18863 4.76291 2.74906 7.77767 2.74906C10.1103 2.74906 12.1877 4.22296 12.947 6.41656C13.1448 6.98792 13.2451 7.58375 13.2451 8.18731C13.2451 8.88397 13.113 9.5646 12.8525 10.2106V10.2109C12.2601 11.6783 11.0594 12.815 9.55777 13.3291C8.98335 13.5259 8.38433 13.6256 7.77753 13.6256C7.07714 13.6256 6.39287 13.4942 5.74337 13.235C5.74309 13.2349 5.74295 13.2349 5.74266 13.2348C3.65761 12.4018 2.31027 10.421 2.31027 8.18731ZM12.9029 64.1609C12.9029 64.161 12.9028 64.1613 12.9028 64.1614C12.1098 66.2791 10.0503 67.7021 7.77767 67.7021C4.76291 67.7021 2.31027 65.2625 2.31027 62.2638C2.31027 60.0301 3.65761 58.0491 5.74281 57.2164C5.74309 57.2162 5.74337 57.2162 5.74351 57.2161C6.39301 56.9569 7.07728 56.8256 7.77767 56.8256C8.38447 56.8256 8.98349 56.9253 9.55791 57.122C11.1108 57.6539 12.3299 58.8365 12.9029 60.3669C13.1301 60.9737 13.2454 61.6119 13.2454 62.264C13.2454 62.916 13.1301 63.5541 12.9029 64.1609ZM55.3778 63.4127H15.4683C15.5251 63.0342 15.5555 62.6507 15.5555 62.2638C15.5555 61.877 15.5251 61.4935 15.4683 61.1149H33.0358C33.6739 61.1149 34.1909 60.6006 34.1909 59.966V47.5575C34.1909 46.9239 34.7091 46.4086 35.346 46.4086C35.983 46.4086 36.501 46.924 36.501 47.5575V59.966C36.501 60.6006 37.0181 61.1149 37.6561 61.1149H55.3776C55.3208 61.4935 55.2904 61.877 55.2904 62.2638C55.2904 62.6507 55.3209 63.0343 55.3778 63.4127ZM61.2972 23.0469C61.2972 22.4132 61.8153 21.898 62.4522 21.898C63.0893 21.898 63.6073 22.4134 63.6073 23.0469V54.5473C63.428 54.5349 63.2483 54.5278 63.0682 54.5278C62.4645 54.5278 61.8727 54.5951 61.297 54.7289V23.0469H61.2972ZM63.0682 67.7022C60.7956 67.7022 58.7361 66.2792 57.9432 64.1616C57.9432 64.1614 57.9431 64.1611 57.9431 64.161C57.7159 63.5542 57.6007 62.916 57.6007 62.264C57.6007 61.6119 57.7159 60.9737 57.9431 60.3669C58.4316 59.0618 59.3941 58.0026 60.6532 57.3846C61.4087 57.0137 62.2214 56.8256 63.0681 56.8256C63.5406 56.8256 64.0115 56.8863 64.4674 57.006C66.8628 57.6347 68.5355 59.7968 68.5355 62.2638C68.5358 65.2627 66.0831 67.7022 63.0682 67.7022Z" fill="white"/>
</svg>
