<svg width="34" height="27" viewBox="0 0 34 27" fill="none" xmlns="http://www.w3.org/2000/svg">
<path d="M33.8231 0.169205C33.4473 0.125321 33.0691 0.105292 32.6909 0.109231C31.0546 0.0678046 29.4216 0.274778 27.8458 0.723299C26.0981 1.25866 24.4302 2.03213 22.8875 3.02256C22.0635 3.51366 21.1432 3.81519 20.1917 3.90591C19.2402 3.99662 18.2806 3.8743 17.3805 3.54757C16.3344 3.16521 15.2616 2.86888 14.1822 2.60119C13.9873 2.5361 13.7807 2.51513 13.577 2.53975C13.512 4.15995 13.4794 5.61557 13.3767 7.07234C13.1749 9.92878 12.9499 12.8046 12.702 15.6998C12.626 17.1166 12.4494 18.5259 12.1733 19.9168C11.9275 21.3581 11.2264 22.679 10.1758 23.6798C9.5539 24.1293 8.84819 24.4454 8.10186 24.6088C7.35547 24.7722 6.58406 24.7795 5.8347 24.6302C5.08534 24.4809 4.37374 24.1782 3.74333 23.7404C3.11292 23.3028 2.57693 22.7393 2.16807 22.0844C1.40099 20.7132 2.10324 18.0983 3.61412 17.6813C4.53533 17.3642 5.53095 17.3456 6.46325 17.6282C7.39556 17.9107 8.21842 18.4803 8.8181 19.2582C9.13388 19.6668 9.36525 20.0696 9.67311 20.4212C10.1585 20.2585 10.6259 20.0453 11.068 19.785C10.2344 17.3449 7.44412 15.5645 4.817 15.6074C2.66813 15.6782 0.272333 17.4148 0.114505 19.807C0.11578 19.8854 0.117172 19.9709 0.118447 20.0493C0.0622493 20.5989 0.0878569 21.154 0.19441 21.6958C0.275973 22.0339 0.399321 22.3603 0.561517 22.667C1.00106 23.5094 1.60746 24.2505 2.34261 24.8436C3.07776 25.4368 3.92575 25.8692 4.83331 26.1137C8.51305 27.2876 12.8066 25.5912 13.7723 21.0319C14.3262 17.8958 14.648 14.7218 14.7351 11.5367C14.8421 9.90864 14.9545 9.04378 15.087 7.25127C15.1442 6.45147 15.1404 5.78817 15.2554 4.65219C15.7915 4.77895 17.0091 5.33683 17.644 5.49765C18.1447 5.6036 18.667 5.75199 19.1739 5.81504C20.9155 5.9432 22.6504 5.48899 24.1134 4.52182C25.9041 3.3911 27.8975 2.63132 29.9791 2.28621L33.5586 2.04945L33.8231 0.169205Z" fill="url(#paint0_linear_1_245)"/>
<defs>
<linearGradient id="paint0_linear_1_245" x1="33.8216" y1="0.0767369" x2="34.2454" y2="26.0322" gradientUnits="userSpaceOnUse">
<stop stop-color="#EA86CE"/>
<stop offset="1" stop-color="#74B7FA"/>
</linearGradient>
</defs>
</svg>
