<svg width="48" height="47" viewBox="0 0 48 47" fill="none" xmlns="http://www.w3.org/2000/svg">
<path d="M47.6616 6.40252L41.5631 0.336375C41.3464 0.121078 41.0526 0 40.7461 0C40.4397 0 40.146 0.121219 39.9292 0.336656L12.1698 27.9619L6.06363 34.0355C6.05783 34.0412 6.05274 34.0478 6.04695 34.0539C6.02928 34.0723 6.01203 34.091 5.99549 34.1106C5.98983 34.1173 5.98389 34.1241 5.97838 34.1308C5.97371 34.1364 5.96975 34.1425 5.96523 34.1483C5.95251 34.1648 5.93992 34.1814 5.92805 34.1987C5.91985 34.2105 5.91193 34.2225 5.9043 34.2346C5.90034 34.2411 5.89624 34.2473 5.89242 34.2537C5.88493 34.2662 5.87744 34.279 5.87022 34.292C5.86033 34.3095 5.85128 34.3277 5.84237 34.3457C5.83898 34.3526 5.83516 34.3593 5.83191 34.3662C5.82809 34.3745 5.82456 34.383 5.82102 34.3914C5.81127 34.4138 5.8025 34.4364 5.79445 34.4595C5.79134 34.468 5.78752 34.476 5.78455 34.4846L4.25992 39.0343L2.82846 43.3056L1.1182 45.0068C0.667062 45.4556 0.667062 46.1829 1.1182 46.6317C1.34384 46.856 1.63946 46.968 1.93509 46.968C2.23057 46.968 2.52633 46.856 2.75197 46.6317L4.43438 44.9582L13.3444 42.0041C13.3535 42.001 13.362 41.9971 13.3709 41.9937C13.3931 41.9857 13.4153 41.9775 13.437 41.968C13.4457 41.9643 13.4545 41.9608 13.463 41.9567C13.4702 41.9534 13.4771 41.9494 13.4843 41.946C13.5021 41.9375 13.5198 41.9286 13.5373 41.9189C13.5502 41.9117 13.5632 41.9046 13.5758 41.8968C13.5826 41.8929 13.5892 41.8887 13.5959 41.8845C13.6079 41.8769 13.6199 41.869 13.6318 41.8608C13.6487 41.8492 13.6651 41.8372 13.6814 41.8248C13.6876 41.82 13.694 41.8158 13.7001 41.8109C13.7071 41.8053 13.7141 41.7992 13.721 41.7933C13.7396 41.7779 13.7573 41.7617 13.7747 41.7451C13.7815 41.7386 13.7887 41.733 13.7955 41.7264L29.0419 26.5613C29.0626 26.5407 29.0821 26.5198 29.1007 26.4981L47.6618 8.02702C48.1128 7.57842 48.1126 6.85097 47.6616 6.40252ZM5.65773 42.1304L6.45186 39.761L7.38552 36.9751L10.8408 40.412L5.65773 42.1304ZM27.4063 24.9345C27.3858 24.9549 27.3664 24.9757 27.3478 24.9972L12.979 39.2892L8.51415 34.848L13.8036 29.5867L40.7464 2.77397L45.2114 7.21505L27.4063 24.9345Z" fill="white"/>
</svg>
