<svg width="70" height="70" viewBox="0 0 70 70" fill="none" xmlns="http://www.w3.org/2000/svg">
<path d="M36.1668 58.3335H33.8335V60.6668H36.1668V58.3335Z" fill="#005DE8"/>
<path d="M68.8333 60.6667H67.6667V18.6667C67.6667 16.0894 65.5773 14 63 14H56V4.66667C56 2.08935 53.9106 0 51.3333 0H18.6667C16.0894 0 14 2.08935 14 4.66667V14H7C4.42269 14 2.33333 16.0894 2.33333 18.6667V60.6667H1.16667C0.522375 60.6667 0 61.189 0 61.8333V65.3333C0 67.9106 2.08935 70 4.66667 70H65.3333C67.9106 70 70 67.9106 70 65.3333V61.8333C70 61.189 69.4776 60.6667 68.8333 60.6667ZM16.3333 4.66667C16.3333 3.37794 17.3779 2.33333 18.6667 2.33333H51.3333C52.6221 2.33333 53.6667 3.37794 53.6667 4.66667V9.33333H16.3333V4.66667ZM16.3333 11.6667H53.6667V45.5C53.6667 46.7887 52.6221 47.8333 51.3333 47.8333H18.6667C17.3779 47.8333 16.3333 46.7887 16.3333 45.5V11.6667ZM18.6667 50.1667H51.3333C53.9106 50.1667 56 48.0773 56 45.5V21H60.6667V53.6667H9.33333V21H14V45.5C14 48.0773 16.0894 50.1667 18.6667 50.1667ZM4.66667 18.6667C4.66667 17.3779 5.71127 16.3333 7 16.3333H14V18.6667H8.16667C7.52237 18.6667 7 19.189 7 19.8333V54.8333C7 55.4776 7.52237 56 8.16667 56H61.8333C62.4776 56 63 55.4776 63 54.8333V19.8333C63 19.189 62.4776 18.6667 61.8333 18.6667H56V16.3333H63C64.2887 16.3333 65.3333 17.3779 65.3333 18.6667V60.6667H45.5C45.1908 60.6664 44.8941 60.789 44.6752 61.0073L42.6837 63H27.3163L25.3248 61.0073C25.1059 60.789 24.8092 60.6664 24.5 60.6667H4.66667V18.6667ZM67.6667 65.3333C67.6667 66.6221 66.6221 67.6667 65.3333 67.6667H4.66667C3.37794 67.6667 2.33333 66.6221 2.33333 65.3333V63H24.017L26.0085 64.9915C26.2272 65.2103 26.5239 65.3333 26.8333 65.3333H43.1667C43.4761 65.3333 43.7728 65.2103 43.9915 64.9915L45.983 63H67.6667V65.3333Z" fill="#005DE8"/>
<path d="M50.1668 37.3335H19.8335V39.6668H50.1668V37.3335Z" fill="#005DE8"/>
<path d="M47.8335 42H19.8335V44.3333H47.8335V42Z" fill="#005DE8"/>
<path d="M50.1663 32.6665H26.833V34.9998H50.1663V32.6665Z" fill="#005DE8"/>
<path d="M21 10.6668H18.6667V13.0001H21V10.6668Z" fill="#005DE8"/>
<path d="M25.6668 10.6668H23.3335V13.0001H25.6668V10.6668Z" fill="#005DE8"/>
<path d="M30.3331 10.6668H27.9998V13.0001H30.3331V10.6668Z" fill="#005DE8"/>
<path d="M24.5003 32.6665H22.167V34.9998H24.5003V32.6665Z" fill="#005DE8"/>
<path d="M31.0334 19.6006L29.6334 17.7339L24.9668 21.2339C24.4512 21.6205 24.3468 22.3517 24.7334 22.8672C24.7998 22.9556 24.8784 23.0342 24.9668 23.1006L29.6334 26.6006L31.0334 24.7339L27.6116 22.1672L31.0334 19.6006Z" fill="#005DE8"/>
<path d="M45.2668 21.4672C45.2004 21.3788 45.1218 21.3002 45.0335 21.2339L40.3668 17.7339L38.9668 19.6006L42.3886 22.1672L38.9668 24.7339L40.3668 26.6006L45.0335 23.1006C45.549 22.7139 45.6534 21.9827 45.2668 21.4672Z" fill="#005DE8"/>
<path d="M36.2515 15.9024L31.5836 27.5677L33.7498 28.4345L38.4177 16.7692L36.2515 15.9024Z" fill="#005DE8"/>
</svg>
